<svg id="books" xmlns="http://www.w3.org/2000/svg" viewBox="0 0 64 54.2448">
    <defs>
        <style>
            .cls-1 { fill: #fff; }
            .cls-1, .cls-5 { fill-rule: evenodd; }
            .cls-2 { fill: none; stroke-width: 2px; }
            .cls-2, .cls-3, .cls-4 { stroke: #333; stroke-linecap: round; stroke-linejoin: round; }
            .cls-3 { fill: #333; stroke-width: 2px; }
            .cls-4 { fill: #f29d16; stroke-width: 1; }
            .cls-5 { fill: #f49f16; }
        </style>
    </defs>
    <g id="layer">
        <path id="pages"  class="cls-1" d="M36.1774,28.5556S7.9472,21.847,5.5107,21.7778c-3.9131-.1111-6.9551,5.9006-1.2222,8.236,3.1038,1.2644,3.6966.3283.0518,1.0976-3.685.7777-5.007,8.2926-.2864,9.4371,2.141.5191-8.4983,4.4515.1182,10.1127,3.2494,2.1349,31.4292,7.173,31.4292,7.173s29.0761-14.58,28.0448-15.9453C62.7329,40.68,59.6138,38.1243,63.0243,33c.6655-1,1.2756-.2,0-1.4444-1.58-1.5418-2.8956-5.15,0-8.7778.9757-1.2223.1569-.09-.4687-1-1.2223-1.7778-1.2223-6.2222,1.09-9C65.339,10.7445,36.1774,28.5556,36.1774,28.5556Z" transform="translate(0 -4.5651)"/>
        <path id="bottom" class="cls-2" d="M5.0794,41.0776c-2.2665,0-4.1037,2.25-4.1037,5.026A4.7342,4.7342,0,0,0,5.0794,51.13l30.5219,6.7047,27.423-15.4331" transform="translate(0 -4.5651)"/>
        <path id="middle" class="cls-2" d="M5.0794,31.0257c-2.2665,0-4.1037,2.25-4.1037,5.026a4.7342,4.7342,0,0,0,4.1037,5.0259l30.5219,6.7047,27.423-15.4331" transform="translate(0 -4.5651)"/>
        <path id="back"   class="cls-2" d="M5.0794,20.9738C2.8129,20.9738.9757,23.224.9757,26a4.7342,4.7342,0,0,0,4.1037,5.026l14.8884,3.27m8.91,1.9573L35.6013,37.73l27.423-15.4331" transform="translate(0 -4.5651)"/>
        <path id="cover"  class="cls-3" d="M32.5025,5.5408,4.34,20.9738l31.2611,6.7046,27.4229-15.433Z" transform="translate(0 -4.5651)"/>
        <path id="logo"   class="cls-4" d="M34.6061,11.45,27.5376,15.45,38.889,17.9436l7.0683-4.0005Z" transform="translate(0 -4.5651)"/>
        <path id="mark"   class="cls-5" d="M22.32,29.12V39.3268l2.2751-1.4142L27.1162,40.68v-10.76Z" transform="translate(0 -4.5651)"/>
    </g>
</svg>